inDegrees=no
num_controls=7
num_derivatives=13
num_iterations=107
num_multipliers=7
num_parameters=0
num_slacks=7
num_states=26
objective=5.335783
objective_accelerations=0.736234
objective_balance=0.015318
objective_effort=0.177424
objective_height=4.290456
objective_ligament=0.116351
solver_duration=1177.883712
status=Solve_Succeeded
success=true
DataType=double
version=3
OpenSimVersion=4.4-2022-07-23-0e9fedc
endheader
time	/jointset/ground_pelvis/pelvis_tilt/value	/jointset/ground_pelvis/pelvis_tx/value	/jointset/ground_pelvis/pelvis_ty/value	/jointset/hip_l/hip_flexion_l/value	/jointset/hip_l/hip_adduction_l/value	/jointset/hip_l/hip_rotation_l/value	/jointset/back/lumbar_extension/value	/jointset/patellofemoral_l/patellar_flexion_l/value	/jointset/knee_l/knee_flexion_l/value	/jointset/knee_l/knee_adduction_l/value	/jointset/knee_l/knee_rotation_l/value	/jointset/ankle_l/ankle_angle_l/value	/jointset/subtalar_l/subtalar_angle_l/value	/jointset/ground_pelvis/pelvis_tilt/speed	/jointset/ground_pelvis/pelvis_tx/speed	/jointset/ground_pelvis/pelvis_ty/speed	/jointset/hip_l/hip_flexion_l/speed	/jointset/hip_l/hip_adduction_l/speed	/jointset/hip_l/hip_rotation_l/speed	/jointset/back/lumbar_extension/speed	/jointset/patellofemoral_l/patellar_flexion_l/speed	/jointset/knee_l/knee_flexion_l/speed	/jointset/knee_l/knee_adduction_l/speed	/jointset/knee_l/knee_rotation_l/speed	/jointset/ankle_l/ankle_angle_l/speed	/jointset/subtalar_l/subtalar_angle_l/speed	/forceset/tau_hip_flexion_l	/forceset/tau_hip_adduction_l	/forceset/tau_hip_rotation_l	/forceset/tau_knee_flexion_l	/forceset/tau_ankle_angle_l	/forceset/tau_subtalar_angle_l	/forceset/tau_lumbar_extension	lambda_cid13_p0	lambda_cid13_p1	lambda_cid13_p2	lambda_cid13_p3	lambda_cid13_p4	lambda_cid13_p5	lambda_cid14_p0	/jointset/ground_pelvis/pelvis_tilt/accel	/jointset/ground_pelvis/pelvis_tx/accel	/jointset/ground_pelvis/pelvis_ty/accel	/jointset/hip_l/hip_flexion_l/accel	/jointset/hip_l/hip_adduction_l/accel	/jointset/hip_l/hip_rotation_l/accel	/jointset/back/lumbar_extension/accel	/jointset/patellofemoral_l/patellar_flexion_l/accel	/jointset/knee_l/knee_flexion_l/accel	/jointset/knee_l/knee_adduction_l/accel	/jointset/knee_l/knee_rotation_l/accel	/jointset/ankle_l/ankle_angle_l/accel	/jointset/subtalar_l/subtalar_angle_l/accel	gamma_cid13_p0	gamma_cid13_p1	gamma_cid13_p2	gamma_cid13_p3	gamma_cid13_p4	gamma_cid13_p5	gamma_cid14_p0
0	0.05716515386058599	0.1033715734389022	0.9055057433661038	0.1266917050730164	-0.3468734277884536	-0.237445069606061	-0.2144974744115991	0.2051547269256712	0.2051547269256735	-0.1268659847986267	-0.1611508875587069	0.09024399430361882	0.1043836124864531	0	0	0	0	0	0	0	0	0	0	0	0	0	0.1133829802142305	-0.06756256022967254	-0.006853157993799103	-0.2396493393705046	0.1693585171061684	-0.04953763299377338	-0.04716774697074398	25.35588848148069	18.73358287141604	-5.162656984369812	-15.69876406267603	-437.8575169314445	-71.09053576508236	-25.93043770486656	-3.286398061616262	-1.155206978039651	-0.8937178415853283	11.53824827510868	-0.3033639994614246	3.086377122000463	-3.61730910105159	10.83393072339243	10.83393072339216	2.210398598262169	-0.8252651846599413	3.496122867422581	0.7553198116712507	-3.669966274277518e-10	4.33869508602748e-07	-1.49797262817624e-07	3.839566562771421e-08	4.043167283402309e-08	2.429417924745149e-07	5.79493096807996e-08
0.01	0.0570088014061402	0.10331473449299	0.905462346369716	0.1272520174141895	-0.346887543956826	-0.2372868013127849	-0.2146826378893468	0.2056842819570723	0.2056842819568274	-0.1267569708117309	-0.1611837081629548	0.09041537587563604	0.1044213768109791	-0.03114121124766615	-0.01130274274256768	-0.008657779801171005	0.1115640782732485	-0.002835280801934706	0.03155661092274852	-0.03676554218660074	0.10545603437463	0.1054560343746338	0.02164524423124295	-0.006497022377484203	0.03414289513531484	0.007499265856807105	0.1109339048115651	-0.07564374215766002	-0.006420329377765125	-0.2369798578334245	0.1633260725745181	-0.04064569169724017	-0.04512447194447981	23.97490571777919	14.89423026063942	-4.299970886990335	-15.24689342605759	-438.4586161666133	-78.86661699709933	-25.93082454279656	-3.008592179726265	-1.108043278569563	-0.8485570415269315	10.89072753001302	-0.2754579470949809	3.175783097247074	-3.66610377187647	10.33318242385514	10.33318242385566	2.118010501702189	-0.5518909538678387	3.353370976643289	0.7391399349202588	-1.80217703039975e-08	5.999213783574588e-07	-1.448363811717689e-07	6.991992477660072e-08	-1.317534863801912e-07	2.636690282197778e-07	8.003782965788216e-08
0.02	0.05654491493451495	0.1031468210484097	0.9053330217768855	0.1289130185234418	-0.3469303824985724	-0.2368158709063516	-0.2152274421878424	0.2072547458577671	0.2072547458577904	-0.1264362197495087	-0.1612794930294115	0.09092418602700919	0.1045325157865213	-0.06150680343062701	-0.02221489973360732	-0.01718551928858951	0.2201377536096723	-0.005744474665316127	0.06253242263887628	-0.07192816414960879	0.2081817739235282	0.2081817739235356	0.04234741510834879	-0.01259285233794951	0.06748571587292189	0.0146749302030018	0.1084848294096404	-0.08372492408547566	-0.005987500758749963	-0.2343103762962564	0.1572936280430293	-0.03175375040050581	-0.04308119691776405	22.64415392493425	11.05566877091947	-3.448361864199134	-14.84294031371706	-438.1712175250021	-86.44597436449374	-25.93170529696108	-3.131274248674635	-1.077089827734514	-0.8677097788348084	10.9401676877438	-0.3181466117507861	2.970217280676327	-3.296725056332617	10.28787175824616	10.28787175824582	2.021783927434711	-0.7450267012562336	3.336107987880482	0.6905995095485624	-3.567654398056725e-08	7.659732481121697e-07	-1.398754995259137e-07	1.014441839254873e-07	-3.039386455944055e-07	2.843962639650408e-07	1.021263496349647e-07
0.03	0.05578058525998607	0.1028713582858862	0.9051187983017716	0.1316460674202714	-0.34700230140114	-0.2360393733842534	-0.2161154414786078	0.2098388132878704	0.2098388132879101	-0.1259125604537477	-0.1614351339777046	0.09176182512531113	0.1047140573851462	-0.09124990863832209	-0.03284903280057877	-0.02565684436681433	0.3260199172726372	-0.008614759105167508	0.09265778909610091	-0.1054113333632084	0.3081200695175624	0.308120069517568	0.06226234922100819	-0.01843046786930063	0.09983338348814327	0.02159784988898957	0.1050380919020375	-0.07918083712320458	-0.005439832597078463	-0.23021842728363	0.1520157366412039	-0.03325426216681162	-0.04047202281782157	20.8502407607775	11.85571294771234	-3.386607708268324	-13.59021966747026	-438.1541826977514	-84.04362209131206	-25.93263187587398	-2.879440970614014	-1.052261635610501	-0.8365556505738304	10.34442295988344	-0.2678754669719697	3.017348991914361	-3.335058756775678	9.770041559103227	9.770041559102564	1.958147428350474	-0.487439650804608	3.152807514213749	0.6877039100395257	-4.474788311623677e-08	8.405435080871322e-07	-1.558881904740337e-07	1.204599091006184e-07	-4.257681191982356e-07	3.015380692687804e-07	1.164419255881942e-07
0.04	0.0547221020706056	0.1024904168748054	0.9048199192202202	0.1354243744045882	-0.3471022043694936	-0.2349648916648286	-0.2173304616420891	0.21340691029371	0.2134069102937264	-0.1251933919617456	-0.1616460132157313	0.09291668317294445	0.1049637413230153	-0.1203375063977625	-0.04331062944505645	-0.03411664057614009	0.4291893711080303	-0.01134128781976766	0.122129262100072	-0.1373323386928156	0.4049876890764234	0.4049876890764069	0.08144925434040136	-0.02364051026984525	0.130929505738187	0.02830339805159555	0.1015913543943603	-0.07463675016100629	-0.004892164434990717	-0.2261264782712852	0.1467378452392437	-0.03475477393324522	-0.03786284871775986	19.10205164749248	12.6594463788067	-3.338801221817828	-12.37915414487516	-437.3194384049348	-81.45078022571093	-25.93268573798779	-3.000172759023077	-1.042582543236196	-0.8654040050549806	10.3976257222295	-0.289395466700581	2.839438590025653	-2.98429227953366	9.673736551211544	9.673736551207149	1.876178128781396	-0.6195120750949921	3.085798914844431	0.6471252048719928	-5.364224422013513e-08	9.132275493037493e-07	-1.723333262179058e-07	1.39217726358765e-07	-5.465593312430887e-07	3.186059481716638e-07	1.305972346543339e-07
0.05	0.05337570748861157	0.102005836111155	0.9044362256667471	0.1402214461007051	-0.3472287967185568	-0.2336005365864674	-0.2188565090495749	0.2179292544362262	0.2179292544361721	-0.1242861357498231	-0.1619075716579935	0.09437666187574938	0.10527941150646	-0.1488013391448561	-0.05356309060554124	-0.04263698201347243	0.5297279998251631	-0.01395910141655619	0.1505962254327605	-0.1676442731154136	0.4989835600120888	0.4989835600120872	0.09985568247314698	-0.02859371919367298	0.1608784112627745	0.03479693596445169	0.09797574703745915	-0.07285962952451247	-0.004279682857167709	-0.2226414676025888	0.1414111307513673	-0.0335827912434541	-0.03516382216388177	17.50899002482992	12.27631105254553	-3.1028682444873	-11.44897947411003	-436.6323012246912	-81.34186045033724	-25.93083911629193	-2.74846800671226	-1.01018500660671	-0.8476962852273614	9.807436514647264	-0.245363734908132	2.828552787279273	-3.019713569258559	9.187849220892039	9.187849220896924	1.801063957999602	-0.4216560277884616	2.921285814269673	0.6452906759533373	-5.441737872970695e-08	8.536657188022887e-07	-2.020272302391654e-07	1.410797272061473e-07	-6.121728092097961e-07	3.207851643597663e-07	1.307722465286169e-07
